<svg xmlns="http://www.w3.org/2000/svg" shape-rendering="geometricPrecision" text-rendering="geometricPrecision" image-rendering="optimizeQuality" fill-rule="evenodd" clip-rule="evenodd" viewBox="0 0 512 501.96"><path fill="#fff" fill-rule="nonzero" d="M143.18 187.76c0 9.67-7.65 17.21-17 17.21-9.67 0-17.22-7.65-17.22-17.21 0-9.46 7.87-17.01 17.43-17.01 9.14-.1 16.79 7.76 16.79 17.01zm117.84 314.2c-52.49 0-101.16-16.15-141.43-43.67-19.02 9.99-61.74 12.22-80.33 9.99-27.1-3.19-55.47-25.61-28.16-47.5 42.4-33.79 31.03-47.18 31.03-47.18-20.3-36.23-31.88-78.1-31.88-122.62C10.25 112.42 122.56 0 261.12 0S512 112.31 512 250.98c0 138.66-112.42 250.98-250.98 250.98zm0-465.19c-119.12 0-215.7 96.58-215.7 215.8 0 41.02 11.47 79.38 31.34 112 0 0 14.13 36.66-22.1 63.97 22.74 7.65 70.66-6.38 73.11-6.38 36.65 28.9 82.98 46.22 133.35 46.22 119.11 0 215.7-96.59 215.7-215.81s-96.59-215.8-215.7-215.8zM410.84 225.8c9.46 9.98 14.56 23.9 14.56 39.2 0 31.99-23.17 56-53.98 56-14.98 0-29.75-6.37-39.63-17-9.67-10.2-14.56-23.69-14.56-39.84 0-31.14 23.59-55.36 54.19-55.36 14.77 0 29.54 6.37 39.42 17zm-61.73 38.78c0 15.73 9.24 27.31 21.57 27.31 12.75 0 22.73-11.9 22.73-27.1 0-14.87-9.88-26.88-22.73-26.88-12.01.11-21.57 11.79-21.57 26.67zm-192.54-37.3c0-10.62 6.05-17.74 15.19-17.74 6.06 0 9.35 2.13 14.77 9.99 8.5-7.76 16.05-10.63 26.89-10.63 7.54 0 15.19 1.91 20.82 5.21 3.08 1.7 5 3.51 8.5 8.18 12.33-9.99 20.4-13.39 32.09-13.39 21.25 0 36.87 14.98 36.87 35.49v53.34c0 7.34-.21 9.14-2.12 12.75-2.34 4.57-7.76 7.76-13.18 7.76-5.63 0-11.05-3.08-13.39-7.76-1.91-3.5-2.12-5.2-2.12-12.75v-46.54c0-9.35-6.27-15.83-15.62-15.83s-16.05 6.48-16.05 15.83v46.54c0 7.34-.21 9.14-2.12 12.75-2.34 4.57-7.76 7.76-13.18 7.76-5.63 0-11.05-3.08-13.39-7.76-1.91-3.5-2.12-5.2-2.12-12.75v-43.56c0-11.9-5.85-18.81-15.83-18.81-9.14 0-15.84 6.69-15.84 15.83v46.54c0 7.34-.21 9.14-2.12 12.75-2.34 4.57-7.76 7.76-13.18 7.76-5.63 0-11.05-3.08-13.38-7.76-1.92-3.5-2.13-5.2-2.13-12.75v-70.44l.64-.01zm-46.01 3.09c0-7.23.21-9.14 2.12-12.65 2.24-4.57 7.65-7.65 13.29-7.65 5.42 0 10.83 3.08 13.06 7.65 1.92 3.51 2.13 5.21 2.13 12.65v67.47c0 7.23-.21 9.14-2.13 12.64-2.23 4.57-7.64 7.65-13.06 7.65-5.64 0-10.95-3.08-13.29-7.65-1.91-3.5-2.12-5.2-2.12-12.64v-67.47z"/></svg>